<?xml version="1.0" encoding="UTF-8" standalone="no"?><svg xmlns="http://www.w3.org/2000/svg" xmlns:xlink="http://www.w3.org/1999/xlink" fill="#ffffff" height="190" preserveAspectRatio="xMidYMid meet" version="1" viewBox="5.0 5.0 190.0 190.0" width="190" zoomAndPan="magnify"><g id="change1_1"><path d="M119.13,109.7,160,80v57a4,4,0,0,1-.19,1.15c-.1-.08-.19-.17-.3-.25Zm-17.37,12.6a2.5,2.5,0,0,1-.41.25,3,3,0,0,1-2.7,0,2.5,2.5,0,0,1-.41-.25L86,113.43,46.53,141H153.47L114,113.43ZM40,80v57a4,4,0,0,0,.19,1.15c.1-.08.19-.17.3-.25l40.38-28.2ZM156,59H44a4,4,0,0,0-4,4v9.63l47.8,34.69h0L100,116.17l12.19-8.85h0L160,72.63V63A4,4,0,0,0,156,59Z"/><path d="M100,195a95,95,0,1,1,95-95A95.11,95.11,0,0,1,100,195Zm0-184a89,89,0,1,0,89,89A89.11,89.11,0,0,0,100,11Z"/></g></svg>