<?xml version="1.0" encoding="UTF-8" standalone="no"?><svg xmlns="http://www.w3.org/2000/svg" xmlns:xlink="http://www.w3.org/1999/xlink" fill="#ffffff" height="24" preserveAspectRatio="xMidYMid meet" version="1" viewBox="0.0 0.0 24.0 24.0" width="24" zoomAndPan="magnify"><g id="change1_1"><path d="m12 24c-6.617 0-12-5.383-12-12s5.383-12 12-12 12 5.383 12 12-5.383 12-12 12zm0-23c-6.065 0-11 4.935-11 11s4.935 11 11 11 11-4.935 11-11-4.935-11-11-11z" fill="inherit"/></g><g id="change1_2"><path d="m15.47 19.003c-1.016 0-2.061-.271-2.896-.532-1.642-.513-3.159-1.432-4.386-2.659-1.65-1.65-2.776-3.854-3.088-6.046-.14-.984-.222-2.243.394-3.247.576-.937 1.617-1.519 2.718-1.519.192 0 .378.021.557.051.009.002.019.003.028.006.62.115 1.111.646 1.198 1.297l.418 3.125c.088.66-.262 1.313-.853 1.588-.065.03-.131.059-.199.085.349.764.828 1.453 1.43 2.055s1.291 1.082 2.056 1.431c.025-.067.054-.134.083-.199.276-.591.93-.943 1.59-.852l3.125.418c.656.087 1.191.587 1.301 1.215.033.187.054.374.054.567 0 1.039-.507 2.015-1.357 2.611-.635.446-1.395.605-2.173.605zm-7.258-13.003c-.755 0-1.471.399-1.866 1.042-.449.732-.373 1.765-.256 2.583.282 1.981 1.304 3.979 2.805 5.479 1.113 1.113 2.488 1.947 3.977 2.411 1.998.623 3.371.645 4.197.064.574-.402.931-1.09.931-1.792 0-.137-.017-.267-.038-.392-.036-.208-.22-.37-.448-.4l-3.125-.419c-.228-.025-.458.085-.549.283-.078.167-.134.349-.168.54-.026.146-.115.272-.243.347-.128.073-.283.087-.421.036-1.104-.406-2.086-1.035-2.92-1.869-.834-.833-1.463-1.816-1.869-2.921-.051-.139-.038-.293.036-.422.074-.128.201-.217.347-.242.19-.033.372-.09.539-.168.198-.092.315-.317.284-.549l-.421-3.125c-.03-.229-.193-.413-.395-.447-.034-.007-.068-.016-.1-.029-.03.008-.161-.01-.297-.01z" fill="inherit"/></g></svg>