<?xml version="1.0" encoding="UTF-8" standalone="no"?><svg xmlns="http://www.w3.org/2000/svg" xmlns:xlink="http://www.w3.org/1999/xlink" fill="#ffffff" height="395.7" preserveAspectRatio="xMidYMid meet" version="1" viewBox="70.5 52.8 371.0 395.7" width="371" zoomAndPan="magnify"><g id="change1_1"><path d="M315.1783,318.6917l41.5766-56.9728a124.7247,124.7247,0,1,0-201.5064,0l41.5873,56.9895C127.7476,326.3941,70.5,347.7838,70.5,381.97c0,43.6577,93.3174,66.5,185.5,66.5s185.5-22.8423,185.5-66.5C441.5,347.7829,384.27,326.3753,315.1783,318.6917ZM172.2119,249.339a103.7253,103.7253,0,1,1,167.5762,0L256,364.1588ZM256,427.47c-100.4165,0-164.5-26.9473-164.5-45.5,0-15.6124,45.4936-37.1081,119.7225-43.5462L247.5166,388.16a10.5038,10.5038,0,0,0,16.9668,0l36.2958-49.737C375.0209,344.8554,420.5,366.3566,420.5,381.97,420.5,400.5226,356.4165,427.47,256,427.47Z" fill="inherit"/><path d="M317.2021,188.1984A61.2,61.2,0,1,0,256,249.3971,61.27,61.27,0,0,0,317.2021,188.1984Zm-101.4008,0A40.2,40.2,0,1,1,256,228.3971,40.2444,40.2444,0,0,1,215.8013,188.1984Z" fill="inherit"/></g></svg>